<?xml version="1.0" encoding="UTF-8" standalone="no"?>
<svg
   xmlns:dc="http://purl.org/dc/elements/1.1/"
   xmlns:cc="http://creativecommons.org/ns#"
   xmlns:rdf="http://www.w3.org/1999/02/22-rdf-syntax-ns#"
   xmlns:svg="http://www.w3.org/2000/svg"
   xmlns="http://www.w3.org/2000/svg"
   xmlns:sodipodi="http://sodipodi.sourceforge.net/DTD/sodipodi-0.dtd"
   xmlns:inkscape="http://www.inkscape.org/namespaces/inkscape"
   width="210mm"
   height="297mm"
   viewBox="0 0 210 297"
   version="1.1"
   id="svg6587"
   inkscape:version="1.0 (6e3e5246a0, 2020-05-07)"
   sodipodi:docname="plus.svg"
   inkscape:export-filename="/home/radaiko/src/private/src/Rage/Rage/Assets/icons/plus.png"
   inkscape:export-xdpi="96"
   inkscape:export-ydpi="96">
  <defs
     id="defs6581" />
  <sodipodi:namedview
     showguides="true"
     inkscape:snap-others="true"
     inkscape:snap-to-guides="false"
     inkscape:snap-grids="false"
     inkscape:object-nodes="true"
     inkscape:snap-nodes="true"
     id="base"
     pagecolor="#ffffff"
     bordercolor="#666666"
     borderopacity="1.0"
     inkscape:pageopacity="0.0"
     inkscape:pageshadow="2"
     inkscape:zoom="0.98994949"
     inkscape:cx="761.58594"
     inkscape:cy="509.35925"
     inkscape:document-units="mm"
     inkscape:current-layer="g98"
     inkscape:document-rotation="0"
     showgrid="false"
     inkscape:snap-bbox="false"
     inkscape:snap-object-midpoints="false"
     inkscape:snap-center="true"
     inkscape:bbox-paths="false"
     inkscape:bbox-nodes="true"
     inkscape:snap-bbox-edge-midpoints="false"
     inkscape:snap-bbox-midpoints="false"
     inkscape:object-paths="false"
     inkscape:snap-intersection-paths="true"
     inkscape:snap-smooth-nodes="false"
     inkscape:snap-midpoints="false"
     inkscape:snap-text-baseline="false"
     inkscape:window-width="3840"
     inkscape:window-height="2090"
     inkscape:window-x="0"
     inkscape:window-y="33"
     inkscape:window-maximized="1" />
  <metadata
     id="metadata6584">
    <rdf:RDF>
      <cc:Work
         rdf:about="">
        <dc:format>image/svg+xml</dc:format>
        <dc:type
           rdf:resource="http://purl.org/dc/dcmitype/StillImage" />
        <dc:title />
      </cc:Work>
    </rdf:RDF>
  </metadata>
  <g
     inkscape:label="Layer 1"
     inkscape:groupmode="layer"
     id="layer1">
    <g
       inkscape:export-ydpi="96"
       inkscape:export-xdpi="96"
       style="fill:none;stroke:#1a1a1a;stroke-opacity:1;stroke-width:2;stroke-miterlimit:4;stroke-dasharray:none"
       id="g98">
      <g
         style="fill:none;stroke:#1a1a1a;stroke-opacity:1;stroke-width:2;stroke-miterlimit:4;stroke-dasharray:none"
         id="g7457" />
      <g
         inkscape:export-ydpi="96"
         inkscape:export-xdpi="96"
         style="fill:none;stroke:#ececec;stroke-opacity:1;stroke-width:10.00000028;stroke-miterlimit:3.6;stroke-dasharray:none"
         transform="rotate(90,97.817605,87.129829)"
         id="g7465">
        <path
           sodipodi:nodetypes="cccscscscccsccccscsccccccscccc"
           d="m 114.38501,108.67131 0.0196,10.77075 0.0193,10.77074 c 0,9.12818 -7.39985,16.52803 -16.528034,16.52803 -9.128179,0 -16.528031,-7.39985 -16.528032,-16.52803 -0.0065,-3.59025 -0.01304,-7.1805 -0.01956,-10.77074 -0.0065,-3.59025 -0.01304,-7.1805 -0.01956,-10.77075 0,-2.44185 -1.232366,-3.68505 -2.479841,-4.31797 -1.278442,-0.64863 -2.572751,-0.65631 -2.572751,-0.65631 l -10.770743,0.0196 -10.770743,0.0196 c -9.128179,0 -16.528031,-7.399849 -16.528033,-16.528028 2e-6,-9.128179 7.399854,-16.528029 16.528033,-16.528028 l 10.770743,-0.01956 10.770743,-0.01956 c 4.987254,0 4.974342,-5.052709 4.974342,-5.052709 -0.0065,-3.590248 -0.01304,-7.180495 -0.01956,-10.770743 -0.0065,-3.590247 -0.01304,-7.180495 -0.01956,-10.770742 -10e-7,-9.12818 7.399852,-16.528033 16.528032,-16.528033 9.128174,2e-6 16.528024,7.399854 16.528024,16.528033 l 0.0196,10.770742 0.0196,10.770743 c 0,4.974475 5.05249,4.974469 5.05249,4.974469 l 10.77075,-0.01956 10.77074,-0.01969 c 9.12818,1e-6 16.52803,7.399854 16.52803,16.528034 0,9.128179 -7.39985,16.528032 -16.52803,16.528032 l -10.77074,0.0196 -10.77075,0.0196 c 0,0 -4.97409,0.0111 -4.97409,5.05248 z"
           style="fill:none;fill-opacity:1;stroke:#ececec;stroke-width:10.00000028;stroke-linecap:butt;stroke-linejoin:miter;stroke-miterlimit:3.6;stroke-dasharray:none;stroke-opacity:1"
           id="path7463" />
      </g>
    </g>
  </g>
</svg>
